<svg aria-hidden="true" style="position: absolute; width: 0; height: 0; overflow: hidden;" version="1.1" xmlns="http://www.w3.org/2000/svg" xmlns:xlink="http://www.w3.org/1999/xlink">
<defs>
<symbol id="icon-envelop" viewBox="0 0 32 32">
<title>envelop</title>
<path d="M29 4h-26c-1.65 0-3 1.35-3 3v20c0 1.65 1.35 3 3 3h26c1.65 0 3-1.35 3-3v-20c0-1.65-1.35-3-3-3zM12.461 17.199l-8.461 6.59v-15.676l8.461 9.086zM5.512 8h20.976l-10.488 7.875-10.488-7.875zM12.79 17.553l3.21 3.447 3.21-3.447 6.58 8.447h-19.579l6.58-8.447zM19.539 17.199l8.461-9.086v15.676l-8.461-6.59z"></path>
</symbol>
<symbol id="icon-user-tie" viewBox="0 0 32 32">
<title>user-tie</title>
<path d="M10 6c0-3.314 2.686-6 6-6s6 2.686 6 6c0 3.314-2.686 6-6 6s-6-2.686-6-6zM24.002 14h-1.107l-6.222 12.633 2.327-11.633-3-3-3 3 2.327 11.633-6.222-12.633h-1.107c-3.998 0-3.998 2.687-3.998 6v10h24v-10c0-3.313 0-6-3.998-6z"></path>
</symbol>
<symbol id="icon-info" viewBox="0 0 32 32">
<title>info</title>
<path d="M14 9.5c0-0.825 0.675-1.5 1.5-1.5h1c0.825 0 1.5 0.675 1.5 1.5v1c0 0.825-0.675 1.5-1.5 1.5h-1c-0.825 0-1.5-0.675-1.5-1.5v-1z"></path>
<path d="M20 24h-8v-2h2v-6h-2v-2h6v8h2z"></path>
<path d="M16 0c-8.837 0-16 7.163-16 16s7.163 16 16 16 16-7.163 16-16-7.163-16-16-16zM16 29c-7.18 0-13-5.82-13-13s5.82-13 13-13 13 5.82 13 13-5.82 13-13 13z"></path>
</symbol>
<symbol id="icon-facebook2" viewBox="0 0 32 32">
<title>facebook2</title>
<path d="M29 0h-26c-1.65 0-3 1.35-3 3v26c0 1.65 1.35 3 3 3h13v-14h-4v-4h4v-2c0-3.306 2.694-6 6-6h4v4h-4c-1.1 0-2 0.9-2 2v2h6l-1 4h-5v14h9c1.65 0 3-1.35 3-3v-26c0-1.65-1.35-3-3-3z"></path>
</symbol>
<symbol id="icon-twitter" viewBox="0 0 32 32">
<title>twitter</title>
<path d="M32 7.075c-1.175 0.525-2.444 0.875-3.769 1.031 1.356-0.813 2.394-2.1 2.887-3.631-1.269 0.75-2.675 1.3-4.169 1.594-1.2-1.275-2.906-2.069-4.794-2.069-3.625 0-6.563 2.938-6.563 6.563 0 0.512 0.056 1.012 0.169 1.494-5.456-0.275-10.294-2.888-13.531-6.862-0.563 0.969-0.887 2.1-0.887 3.3 0 2.275 1.156 4.287 2.919 5.463-1.075-0.031-2.087-0.331-2.975-0.819 0 0.025 0 0.056 0 0.081 0 3.181 2.263 5.838 5.269 6.437-0.55 0.15-1.131 0.231-1.731 0.231-0.425 0-0.831-0.044-1.237-0.119 0.838 2.606 3.263 4.506 6.131 4.563-2.25 1.762-5.075 2.813-8.156 2.813-0.531 0-1.050-0.031-1.569-0.094 2.913 1.869 6.362 2.95 10.069 2.95 12.075 0 18.681-10.006 18.681-18.681 0-0.287-0.006-0.569-0.019-0.85 1.281-0.919 2.394-2.075 3.275-3.394z"></path>
</symbol>
<symbol id="icon-blogger2" viewBox="0 0 32 32">
<title>blogger2</title>
<path d="M29 0h-26c-1.65 0-3 1.35-3 3v26c0 1.65 1.35 3 3 3h26c1.65 0 3-1.35 3-3v-26c0-1.65-1.35-3-3-3zM28 20.25c0 4.281-3.481 7.75-7.794 7.75h-8.4c-4.313 0-7.806-3.469-7.806-7.75v-8.5c0-4.281 3.494-7.75 7.806-7.75h3.931c4.313 0 7.762 3.219 7.762 7.5 0.056 0.8 0.781 1.5 1.6 1.5h1.344c0.863 0 1.55 0.906 1.55 1.762v5.488z"></path>
<path d="M22 20c0 1.1-0.9 2-2 2h-8c-1.1 0-2-0.9-2-2v0c0-1.1 0.9-2 2-2h8c1.1 0 2 0.9 2 2v0z"></path>
<path d="M18 12c0 1.1-0.9 2-2 2h-4c-1.1 0-2-0.9-2-2v0c0-1.1 0.9-2 2-2h4c1.1 0 2 0.9 2 2v0z"></path>
</symbol>
<symbol id="icon-skype" viewBox="0 0 32 32">
<title>skype</title>
<path d="M13.3 1.169c-0.050-0.031-0.106-0.056-0.156-0.081-0.056 0.012-0.106 0.019-0.162 0.031l0.319 0.050z"></path>
<path d="M1.15 13.156c-0.012 0.056-0.019 0.113-0.025 0.162 0.031 0.050 0.050 0.1 0.081 0.15l-0.056-0.313z"></path>
<path d="M30.837 18.831c0.012-0.056 0.019-0.113 0.031-0.169-0.031-0.050-0.050-0.1-0.081-0.15l0.050 0.319z"></path>
<path d="M18.5 30.719c0.050 0.031 0.106 0.056 0.156 0.081 0.056-0.012 0.113-0.019 0.169-0.025l-0.325-0.056z"></path>
<path d="M30.869 18.663c-0.012 0.056-0.019 0.113-0.031 0.169l-0.056-0.325c0.031 0.056 0.056 0.106 0.087 0.156 0.163-0.9 0.25-1.819 0.25-2.738 0-2.037-0.4-4.019-1.188-5.881-0.762-1.8-1.85-3.419-3.238-4.806s-3.006-2.475-4.8-3.237c-1.863-0.788-3.844-1.188-5.881-1.188-0.963 0-1.925 0.088-2.863 0.269 0 0-0.006 0-0.006 0 0.050 0.025 0.106 0.050 0.156 0.081l-0.319-0.050c0.056-0.012 0.106-0.019 0.162-0.031-1.287-0.681-2.731-1.050-4.194-1.050-2.388 0-4.638 0.931-6.325 2.619s-2.619 3.937-2.619 6.325c0 1.519 0.394 3.019 1.125 4.338 0.012-0.056 0.019-0.113 0.025-0.162l0.056 0.319c-0.031-0.050-0.056-0.1-0.081-0.15-0.15 0.856-0.225 1.731-0.225 2.606 0 2.038 0.4 4.019 1.188 5.881 0.763 1.8 1.85 3.413 3.237 4.8s3.006 2.475 4.806 3.238c1.863 0.788 3.844 1.188 5.881 1.188 0.887 0 1.775-0.081 2.644-0.238-0.050-0.031-0.1-0.056-0.156-0.081l0.325 0.056c-0.056 0.012-0.113 0.019-0.169 0.025 1.337 0.756 2.856 1.163 4.4 1.163 2.387 0 4.637-0.931 6.325-2.619s2.619-3.938 2.619-6.325c-0.006-1.519-0.4-3.019-1.137-4.35zM16.069 25.181c-5.369 0-7.769-2.637-7.769-4.619 0-1.012 0.75-1.725 1.781-1.725 2.3 0 1.7 3.3 5.988 3.3 2.194 0 3.406-1.194 3.406-2.413 0-0.731-0.363-1.544-1.806-1.9l-4.775-1.194c-3.844-0.963-4.544-3.044-4.544-5 0-4.056 3.819-5.581 7.406-5.581 3.306 0 7.2 1.825 7.2 4.263 0 1.044-0.906 1.65-1.938 1.65-1.962 0-1.6-2.713-5.55-2.713-1.963 0-3.044 0.887-3.044 2.156s1.55 1.675 2.894 1.981l3.538 0.787c3.869 0.863 4.85 3.125 4.85 5.25 0 3.294-2.531 5.756-7.637 5.756z"></path>
</symbol>
<symbol id="icon-linkedin" viewBox="0 0 32 32">
<title>linkedin</title>
<path d="M29 0h-26c-1.65 0-3 1.35-3 3v26c0 1.65 1.35 3 3 3h26c1.65 0 3-1.35 3-3v-26c0-1.65-1.35-3-3-3zM12 26h-4v-14h4v14zM10 10c-1.106 0-2-0.894-2-2s0.894-2 2-2c1.106 0 2 0.894 2 2s-0.894 2-2 2zM26 26h-4v-8c0-1.106-0.894-2-2-2s-2 0.894-2 2v8h-4v-14h4v2.481c0.825-1.131 2.087-2.481 3.5-2.481 2.488 0 4.5 2.238 4.5 5v9z"></path>
</symbol>
<symbol id="icon-warning" viewBox="0 0 32 32">
<title>warning</title>
<path d="M16 2.899l13.409 26.726h-26.819l13.409-26.726zM16 0c-0.69 0-1.379 0.465-1.903 1.395l-13.659 27.222c-1.046 1.86-0.156 3.383 1.978 3.383h27.166c2.134 0 3.025-1.522 1.978-3.383h0l-13.659-27.222c-0.523-0.93-1.213-1.395-1.903-1.395v0z"></path>
<path d="M18 26c0 1.105-0.895 2-2 2s-2-0.895-2-2c0-1.105 0.895-2 2-2s2 0.895 2 2z"></path>
<path d="M16 22c-1.105 0-2-0.895-2-2v-6c0-1.105 0.895-2 2-2s2 0.895 2 2v6c0 1.105-0.895 2-2 2z"></path>
</symbol>
<symbol id="icon-phone" viewBox="0 0 32 32">
<title>phone</title>
<path d="M22 20c-2 2-2 4-4 4s-4-2-6-4-4-4-4-6 2-2 4-4-4-8-6-8-6 6-6 6c0 4 4.109 12.109 8 16s12 8 16 8c0 0 6-4 6-6s-6-8-8-6z"></path>
</symbol>
<symbol id="icon-location" viewBox="0 0 32 32">
<title>location</title>
<path d="M16 0c-5.523 0-10 4.477-10 10 0 10 10 22 10 22s10-12 10-22c0-5.523-4.477-10-10-10zM16 16c-3.314 0-6-2.686-6-6s2.686-6 6-6 6 2.686 6 6-2.686 6-6 6z"></path>
</symbol>
<symbol id="icon-mic" viewBox="0 0 32 32">
<title>mic</title>
<path d="M15 22c2.761 0 5-2.239 5-5v-12c0-2.761-2.239-5-5-5s-5 2.239-5 5v12c0 2.761 2.239 5 5 5zM22 14v3c0 3.866-3.134 7-7 7s-7-3.134-7-7v-3h-2v3c0 4.632 3.5 8.447 8 8.944v4.056h-4v2h10v-2h-4v-4.056c4.5-0.497 8-4.312 8-8.944v-3h-2z"></path>
</symbol>
<symbol id="icon-images" viewBox="0 0 20 20">
<title>images</title>
<path d="M17.125 6.17l-2.046-5.635c-0.151-0.416-0.595-0.637-0.989-0.492l-13.598 4.963c-0.394 0.144-0.593 0.597-0.441 1.013l2.156 5.941v-3.183c0-1.438 1.148-2.607 2.56-2.607h3.593l4.285-3.008 2.479 3.008h2.001zM19.238 8h-14.471c-0.42 0-0.762 0.334-0.762 0.777v9.42c0.001 0.444 0.343 0.803 0.762 0.803h14.471c0.42 0 0.762-0.359 0.762-0.803v-9.42c0-0.443-0.342-0.777-0.762-0.777zM18 17h-12v-2l1.984-4.018 2.768 3.436 2.598-2.662 3.338-1.205 1.312 3.449v3z"></path>
</symbol>
<symbol id="icon-pencil2" viewBox="0 0 32 32">
<title>pencil2</title>
<path d="M12 20l4-2 14-14-2-2-14 14-2 4zM9.041 27.097c-0.989-2.085-2.052-3.149-4.137-4.137l3.097-8.525 4-2.435 12-12h-6l-12 12-6 20 20-6 12-12v-6l-12 12-2.435 4z"></path>
</symbol>
</defs>
</svg>
